<?xml version="1.0" encoding="iso-8859-1"?>
<!-- Generator: Adobe Illustrator 19.0.0, SVG Export Plug-In . SVG Version: 6.00 Build 0)  -->
<svg version="1.1" id="Capa_1" xmlns="http://www.w3.org/2000/svg" xmlns:xlink="http://www.w3.org/1999/xlink" x="0px" y="0px"
	 viewBox="0 0 512 512" style="enable-background:new 0 0 512 512;" xml:space="preserve">
<g>
	<g>
		<path d="M452,166H210c-17.908,0-33.997,7.896-45,20.377C153.997,173.896,137.908,166,120,166c-10.925,0-21.167,2.949-30,8.072V76
			H0v360h90v-60h332v60h90c0-28.578,0-184.963,0-210C512,192.916,485.084,166,452,166z M60,406H30V106h30
			C60,199.571,60,312.316,60,406z M90,226c0-16.542,13.458-30,30-30s30,13.458,30,30v30H90V226z M482,406h-30v-30h30V406z M482,346
			c-18.376,0-371.361,0-392,0v-60h392V346z M482,256H180v-30c0-16.542,13.458-30,30-30h242c16.542,0,30,13.458,30,30V256z"/>
	</g>
</g>
<g>
</g>
<g>
</g>
<g>
</g>
<g>
</g>
<g>
</g>
<g>
</g>
<g>
</g>
<g>
</g>
<g>
</g>
<g>
</g>
<g>
</g>
<g>
</g>
<g>
</g>
<g>
</g>
<g>
</g>
</svg>
