<svg id="Layer_2" height="512" viewBox="0 0 42 42" width="512" xmlns="http://www.w3.org/2000/svg" data-name="Layer 2"><g fill="#037ca9"><path d="m21 2a19 19 0 1 0 19 19 19.021 19.021 0 0 0 -19-19zm-9.6 13.8a1 1 0 0 1 -.2-1.4l3-4a1 1 0 0 1 1.6 1.2l-3 4a1 1 0 0 1 -1.4.2zm18.428 12.761a1 1 0 0 1 -.828.439h-4.142a3.981 3.981 0 0 1 -7.716 0h-4.142a1 1 0 0 1 -.929-1.372l1.929-4.82v-4.808a7 7 0 0 1 6-6.92v-.08a1 1 0 0 1 2 0v.08a7 7 0 0 1 6 6.92v4.808l1.929 4.82a1 1 0 0 1 -.101.933zm.772-12.761a1 1 0 0 1 -1.4-.2l-3-4a1 1 0 0 1 1.6-1.2l3 4a1 1 0 0 1 -.2 1.4z"/><path d="m21 30a1.993 1.993 0 0 0 1.722-1h-3.444a1.993 1.993 0 0 0 1.722 1z"/><path d="m26 23v-5a5 5 0 0 0 -10 0v5a1.012 1.012 0 0 1 -.071.372l-1.452 3.628h13.046l-1.452-3.628a1.012 1.012 0 0 1 -.071-.372z"/></g></svg>