<svg xmlns="http://www.w3.org/2000/svg" viewBox="0 0 109.9 115.17"><defs><style>.cls-1{fill:#92c39a;}.cls-2{fill:#040504;}.cls-3{fill:#141414;}.cls-4{fill:#0c100d;}</style></defs><title>logoFichier 1</title><g id="Calque_2" data-name="Calque 2"><g id="Calque_1-2" data-name="Calque 1"><path class="cls-1" d="M38.71.07l19-.07c19.15,2.23,34.11,11.59,45.15,27.15,7.16,10.08,7.49,21.87,6.72,33.58-1,15.34-4.83,29.6-18.3,39.22A93.31,93.31,0,0,1,63,113.21c-16.85,5-30.43.36-43.06-11.86C6.86,88.71.25,73.86,0,56.21-.2,40.77,3.85,26.14,13.07,13.55,19.25,5.11,28.1.64,38.71.07ZM86.12,79.75c-1.73-.46-2.13-2.07-2.92-3.24Q72.85,61.22,62.62,45.85c-3.17-4.77-7.6-9-6.38-15.63.15-.8-.14-1.83-1.13-1.92-1.51-.15-1.52,1.17-1.35,2.05,1.08,5.57-2.23,9.45-5,13.57C42.34,53.44,36,63,29.56,72.5c-1.71,2.53-3.53,5-5.18,7.29-1.76-1.44.46-4.4-1.73-4.41-2.43,0-1.18,2.81-1.47,4.4-.15.81.06,1.67,0,2.49-.39,3.3,1.06,4.38,4.29,4.21a93.71,93.71,0,0,1,13,0c4,.33,6-1.08,7.38-4.82C49.15,72.89,52.3,64,55.1,54.51c2.34,7.18,4.35,13.68,6.58,20.11,4.08,11.82,4.14,11.8,16.39,11.8,2.66,0,5.33,0,8,0,1.16,0,2.62,0,2.57-1.61-.11-3.28.91-6.71-.71-10.1C85.61,76.06,87.28,78.34,86.12,79.75ZM79,51.07c6.92.76,13.69-.09,20.41-1.43.61-.12,1.29-.42,1.3-1.26,0-1.14-.82-1.38-1.67-1.36A55.81,55.81,0,0,0,79,51.07ZM39.06,38.28l1-1.12a108.63,108.63,0,0,0-14.9-14.09c-1-.79-2.22-1.05-3.06.17s.3,2.16,1.17,2.84C28.53,30.18,33.8,34.22,39.06,38.28Zm31-.42a63.78,63.78,0,0,0,15.1-11.39,1.46,1.46,0,1,0-1.95-2.17C78.35,28.37,73.5,32.41,70,37.86ZM29.54,50.35A48.34,48.34,0,0,0,13,46.2c-.73-.05-1.75-.3-2,.84a1.5,1.5,0,0,0,1.29,1.8C17.91,50.14,23.61,51.17,29.54,50.35Zm27-28.93c0-4.27,0-8.55,0-12.82,0-.95-.26-2.22-1.53-2.18s-1.23,1.36-1.18,2.29A34.71,34.71,0,0,0,56.58,21.42Z"/><path class="cls-2" d="M86.12,79.75c1.16-1.41-.51-3.69,1.8-5.06,1.62,3.39.6,6.82.71,10.1.05,1.61-1.41,1.6-2.57,1.61-2.66,0-5.33,0-8,0-12.25,0-12.31,0-16.39-11.8-2.23-6.43-4.24-12.93-6.58-20.11-2.8,9.52-6,18.38-9.31,27.17-1.43,3.74-3.41,5.15-7.38,4.82a93.71,93.71,0,0,0-13,0c-3.23.17-4.68-.91-4.29-4.21.1-.82-.11-1.68,0-2.49.29-1.59-1-4.41,1.47-4.4,2.19,0,0,3,1.73,4.41C26,77.48,27.85,75,29.56,72.5,36,63,42.34,53.44,48.75,43.92c2.78-4.12,6.09-8,5-13.57-.17-.88-.16-2.2,1.35-2.05,1,.09,1.28,1.12,1.13,1.92C55,36.81,59.45,41.08,62.62,45.85Q72.85,61.23,83.2,76.51C84,77.68,84.39,79.29,86.12,79.75Z"/><path class="cls-3" d="M79,51.07a55.81,55.81,0,0,1,20-4c.85,0,1.68.22,1.67,1.36,0,.84-.69,1.14-1.3,1.26C92.64,51,85.87,51.83,79,51.07Z"/><path class="cls-4" d="M39.06,38.28c-5.26-4.06-10.53-8.1-15.77-12.2-.87-.68-2.1-1.48-1.17-2.84s2.05-1,3.06-.17a108.63,108.63,0,0,1,14.9,14.09Z"/><path class="cls-3" d="M70,37.86c3.47-5.45,8.32-9.49,13.15-13.56a1.46,1.46,0,1,1,1.95,2.17A63.78,63.78,0,0,1,70,37.86Z"/><path class="cls-4" d="M29.54,50.35c-5.93.82-11.63-.21-17.3-1.51A1.5,1.5,0,0,1,11,47c.25-1.14,1.27-.89,2-.84A48.34,48.34,0,0,1,29.54,50.35Z"/><path class="cls-3" d="M56.58,21.42A34.71,34.71,0,0,1,53.84,8.71c-.05-.93-.2-2.24,1.18-2.29s1.51,1.23,1.53,2.18C56.62,12.87,56.58,17.15,56.58,21.42Z"/></g></g></svg>