<svg xmlns="http://www.w3.org/2000/svg" viewBox="0 0 433.5 510"><defs><style>.cls-1{fill:#fff;}</style></defs><title>whiteFichier 1</title><g id="Calque_2" data-name="Calque 2"><g id="Capa_1" data-name="Capa 1"><g id="notifications-none"><path class="cls-1" d="M216.75,510a51.15,51.15,0,0,0,51-51h-102A51.15,51.15,0,0,0,216.75,510ZM382.5,357V216.75C382.5,137.7,329,74,255,56.1V38.25C255,17.85,237.15,0,216.75,0S178.5,17.85,178.5,38.25V56.1C104.55,74,51,137.7,51,216.75V357L0,408v25.5H433.5V408Zm-51,25.5H102V216.75a114.75,114.75,0,0,1,229.5,0Z"/></g></g></g></svg>