<svg xmlns="http://www.w3.org/2000/svg" viewBox="0 0 507.95 512"><defs><style>.cls-1{fill:#fffdfd;}</style></defs><title>whitetent</title><g id="Calque_2" data-name="Calque 2"><g id="Capa_1" data-name="Capa 1"><circle class="cls-1" cx="39.36" cy="41" r="15.68"/><circle class="cls-1" cx="63.36" cy="235.06" r="15.68"/><circle class="cls-1" cx="448.34" cy="235.06" r="15.68"/><circle class="cls-1" cx="362.14" cy="25.32" r="15.68"/><circle class="cls-1" cx="116" cy="128.99" r="15.68"/><path class="cls-1" d="M482.62,24.68A85.91,85.91,0,0,0,433.48.14a15,15,0,0,0-17,17,56.19,56.19,0,0,1-16,47.94,56.2,56.2,0,0,1-47.94,16,15,15,0,0,0-17,17A86.64,86.64,0,1,0,482.62,24.68ZM461.36,125.94a56.69,56.69,0,0,1-90.69-14.79,86,86,0,0,0,51.06-24.83,85.93,85.93,0,0,0,24.83-51.07,57,57,0,0,1,14.8,10.68,56.63,56.63,0,0,1,0,80Z"/><path class="cls-1" d="M502,481.69c-39.6-66.42-169.13-283.64-230.69-386.86l38.26-38.26a15,15,0,1,0-21.26-21.26L267.47,56.17V15a15,15,0,0,0-30.07,0V56.17L216.54,35.31a15,15,0,0,0-21.26,21.26l38.26,38.26C218.47,120.07,10.05,469.63,2.85,481.69A20.06,20.06,0,0,0,20.07,512H484.8A20.06,20.06,0,0,0,502,481.69ZM252.44,121.82l45.84,76.88H206.6Zm-98.1,360.11H37.71L96.64,383.1h57.7v98.83Zm166.12,0h-136c0-122-.86-116.87,2.56-128.9a68,68,0,0,1,130.93,0C321.32,365.06,320.46,359.9,320.46,481.93Zm-68-208.49A98.27,98.27,0,0,0,156.1,353H114.56l74.11-124.27H316.2L390.31,353H348.78A98.26,98.26,0,0,0,252.43,273.44Zm98.1,208.49V383.1h57.71l58.92,98.83Z"/></g></g></svg>